<svg width="360" height="360" viewBox="0 0 360 360" fill="none" xmlns="http://www.w3.org/2000/svg">
<path d="M356.529 0.0471456C358.82 0.867498 358.82 0.867498 360 3.25463C359.488 5.84207 359.488 5.84207 358.56 9.08533C358.049 10.8858 358.049 10.8858 357.528 12.734C357.151 14.0337 356.776 15.3334 356.388 16.6688C355.617 19.3874 354.841 22.106 354.074 24.8246C353.486 26.8874 353.486 26.8874 352.881 28.9979C351.169 35.0671 349.528 41.1601 347.899 47.2412C347.624 48.2655 347.347 49.2921 347.064 50.3414C345.942 54.5147 344.821 58.6761 343.699 62.8613C343.385 64.0322 343.071 65.1984 342.746 66.4146C342.461 67.4818 342.175 68.5489 341.881 69.6459C341.286 71.7922 340.618 73.9027 339.921 76.0132C339.036 79.9361 338.186 83.859 337.347 87.7819C336.521 90.9775 335.506 93.3741 334.018 96.2835C333.614 98.0124 333.274 99.7533 332.985 101.506C331.651 108.672 329.632 115.576 327.613 122.611C326.42 126.761 325.275 130.934 324.13 135.131C323.887 136.015 323.644 136.896 323.393 137.814C321.988 142.953 320.583 148.092 319.202 153.195C318.737 154.924 318.737 154.924 318.263 156.689C317.666 158.919 317.071 161.137 316.481 163.366C314.851 169.447 313.128 175.529 311.309 181.49C309.657 187.059 308.11 192.663 306.563 198.303C306.21 199.579 305.858 200.843 305.495 202.154C302.437 213.196 299.485 224.332 296.593 235.421C296.269 236.65 295.947 237.878 295.614 239.142C295.192 240.763 295.192 240.763 294.762 242.409C293.852 245.509 292.707 248.43 291.503 251.423C290.774 254.142 290.086 256.884 289.437 259.627C289.021 261.344 288.604 263.049 288.185 264.754C287.96 265.677 287.736 266.602 287.503 267.556C283.442 284.13 279.061 300.465 274.162 316.801C272.379 322.834 270.809 328.844 269.51 335.044C268.941 337.632 268.199 340.1 267.314 342.592C265.342 348.327 263.63 354.134 261.93 360C256.594 359.421 254.291 357.64 250.572 353.812C249.563 352.783 248.553 351.749 247.515 350.688L244.362 347.397C243.331 346.345 242.296 345.299 241.245 344.213C236.889 339.742 232.638 335.235 228.612 330.501C223.843 324.969 218.707 319.877 213.5 314.762C211.481 312.747 209.451 310.744 207.432 308.728C204.268 305.593 201.103 302.445 197.927 299.321C194.846 296.28 191.776 293.228 188.707 290.163C187.746 289.227 186.782 288.291 185.79 287.325C184.919 286.449 184.043 285.573 183.146 284.666C182.371 283.901 181.599 283.14 180.796 282.341C179.285 280.112 179.285 280.112 179.521 277.584C180.761 274.639 182.437 272.993 184.728 270.775C185.598 269.919 186.463 269.058 187.361 268.176C188.276 267.292 189.191 266.411 190.135 265.493C195.968 259.841 201.328 254.285 206.074 247.607C208.294 244.627 210.915 242.123 213.559 239.523C216.204 236.423 218.73 233.216 221.245 230.008C222.567 228.363 223.961 226.789 225.366 225.215H227.727C228.013 224.373 228.3 223.533 228.594 222.663C230.317 218.74 232.501 215.783 235.111 212.397C241.64 203.8 247.507 194.988 252.938 185.568C254.32 183.196 255.737 180.847 257.165 178.509C263.505 167.874 267.815 157.166 271.451 145.242C271.826 144.038 271.826 144.038 272.209 142.81C277.711 124.805 279.316 104.654 270.709 87.3646C270.183 86.3928 269.656 85.421 269.116 84.4194C267.911 81.9989 267.911 81.9989 267.911 79.6142H265.55C264.145 77.7779 264.145 77.7779 262.528 75.2978C257.226 67.8931 250.249 63.7794 241.984 60.5123C240.709 59.9233 239.434 59.3355 238.124 58.7238C233.33 56.6491 228.49 55.5044 223.366 54.467C222.376 54.2655 221.382 54.064 220.367 53.8553C206.435 51.2321 192.267 50.5644 178.218 49.7774V46.2003C190.378 42.7186 202.539 39.4157 214.818 36.3513C220.91 34.8251 226.978 33.2392 233 31.4983C235.68 30.7901 238.36 30.1748 241.063 29.5786C246.483 28.3743 251.819 26.9316 257.12 25.3934C258.997 24.8628 260.875 24.331 262.752 23.7956C263.643 23.5428 264.535 23.2889 265.456 23.0277C278.561 19.3075 291.784 15.957 305.007 12.7018C305.854 12.4919 306.695 12.2821 307.569 12.0663C309.187 11.6656 310.804 11.2698 312.41 10.8763C315.527 10.1012 318.514 9.27849 321.489 8.05035C324.665 6.81028 327.699 6.03524 331.029 5.34366C332.221 5.0873 333.425 4.83214 334.653 4.56862C335.893 4.30988 337.121 4.05113 338.396 3.78404C340.863 3.26417 343.331 2.74071 345.787 2.21011C346.874 1.98117 347.959 1.75343 349.081 1.51853C355.68 -0.0792459 355.68 -0.0792458 356.542 0.0519151L356.529 0.0471456Z" fill="#70BC41"/>
<path d="M147.556 110.938V113.323C148.262 113.629 148.972 113.934 149.693 114.249C157.166 118.47 161.357 128.081 164.097 135.95C168.229 154.193 166.08 173.629 159.374 190.799C159.089 191.552 158.806 192.302 158.513 193.077C154.948 202.425 150.591 210.962 145.172 219.428C144.255 220.954 144.255 220.954 143.318 222.504C142.713 223.482 142.102 224.46 141.488 225.462C140.95 226.336 140.41 227.214 139.859 228.109C138.1 230.148 138.1 230.148 135.833 231.292C132.232 231.374 130.957 229.826 128.348 227.393C127.514 226.635 126.683 225.879 125.821 225.092C123.92 222.993 123.92 222.993 123.92 220.609C123.225 220.294 122.527 219.978 121.819 219.654C119.103 218.175 117.309 216.613 115.125 214.419C114.029 213.317 114.029 213.317 112.905 212.189C112.156 211.424 111.406 210.663 110.638 209.864C109.487 208.716 109.487 208.716 108.312 207.539C107.587 206.804 106.86 206.072 106.116 205.309C105.454 204.638 104.794 203.962 104.109 203.27C102.669 201.506 102.669 201.506 102.669 199.121C101.963 198.811 101.252 198.501 100.532 198.18C97.7573 196.63 96.3878 195.175 94.3925 192.707C89.1622 186.471 83.4361 180.783 77.7454 175.06C75.7501 173.057 73.7548 171.054 71.7596 169.038C67.521 164.77 63.2825 160.513 59.0086 156.28C54.0853 151.344 49.1738 146.395 44.2505 141.495C42.3025 139.527 40.3426 137.572 38.3945 135.616C32.633 129.833 27.0013 123.991 21.7475 117.731C19.5633 115.179 17.2492 112.782 14.8761 110.398C13.9977 109.514 13.117 108.633 12.2079 107.715C11.32 106.828 10.4369 105.938 9.51599 105.032C8.59627 104.108 7.67418 103.184 6.72967 102.23C4.48644 99.9763 2.24322 97.7346 0 95.493C2.36129 91.9158 2.36129 91.9159 4.88787 91.2004C5.92683 91.0764 6.9658 90.9536 8.04018 90.826C9.20194 90.6817 10.366 90.5375 11.5585 90.3896C12.81 90.2537 14.0615 90.1178 15.3484 89.9782C16.6235 89.8292 17.9104 89.6802 19.2209 89.5275C60.0712 84.9369 115.207 80.072 147.911 110.99L147.556 110.938Z" fill="#6FBB40"/>
</svg>